# xmcd
#
# Track frame offsets:
#	150
#	16733
#	32774
#	46558
#	55907
#	69900
#	84086
#	94965
#	105246
#	118165
#	131562
#	149123
#
# Disc length: 2136 seconds
#
# Revision: 0
# Processed by: cddbd v1.5.2PL0 Copyright (c) Steve Scherf et al.
# Submitted via: EasyCDDAExtractor 16.0.9.1
#
DISCID=9508560c
DTITLE=Valentin Elizalde - Versiones Originales
DYEAR=2011
DGENRE=Regional Mexicano
TTITLE0=Soy Asi
TTITLE1=La Dama y El Judicial
TTITLE2=Como Me Duele
TTITLE3=El Venadito
TTITLE4=La Novia de mi Hermano
TTITLE5=Vete Ya
TTITLE6=Si Me Ven
TTITLE7=El Director de la Banda
TTITLE8=La Gallina Ponedora
TTITLE9=Nada
TTITLE10=Gracias porque Volviste
TTITLE11=La Papa
EXTD=
EXTT0=
EXTT1=
EXTT2=
EXTT3=
EXTT4=
EXTT5=
EXTT6=
EXTT7=
EXTT8=
EXTT9=
EXTT10=
EXTT11=
PLAYORDER=
